<?xml version="1.0" encoding="UTF-8"?>
<svg width="24px" height="24px" viewBox="0 0 24 24" version="1.1" xmlns="http://www.w3.org/2000/svg" xmlns:xlink="http://www.w3.org/1999/xlink">
    <title>icon-close-red</title>
    <g id="Page-1" stroke="none" stroke-width="1" fill="none" fill-rule="evenodd">
        <g id="Pressbooks---Take-a-Tour---Start-Screen" transform="translate(-1000.000000, -334.000000)" fill="#BB2026" fill-rule="nonzero">
            <g id="icon_cancel_hover" transform="translate(1000.000000, 334.000000)">
                <path d="M22.972053,0.42789825 C22.401444,-0.14263275 21.486335,-0.14263275 20.915739,0.42789825 L11.7,9.64258425 L2.484261,0.42789825 C1.913665,-0.14263275 0.998556,-0.14263275 0.427947,0.42789825 C-0.142649,0.99844225 -0.142649,1.91344725 0.427947,2.48397825 L9.643686,11.6986513 L0.427947,20.9133373 C-0.142649,21.4838683 -0.142649,22.3988733 0.427947,22.9694173 C0.707863,23.2492943 1.084681,23.4000033 1.450722,23.4000033 C1.816776,23.4000033 2.193581,23.2600583 2.473497,22.9694173 L11.689236,13.7547313 L20.904975,22.9694173 C21.184891,23.2492943 21.561696,23.4000033 21.927737,23.4000033 C22.304555,23.4000033 22.670596,23.2600583 22.950512,22.9694173 C23.521121,22.3988733 23.521121,21.4838683 22.950512,20.9133373 L13.756314,11.6986513 L22.972053,2.48397825 C23.542649,1.91344725 23.542649,0.99844225 22.972053,0.42789825 Z" id="icon-close-red"></path>
            </g>
        </g>
    </g>
</svg>