<?xml version="1.0" encoding="UTF-8"?>
<svg width="12px" height="12px" viewBox="0 0 12 12" version="1.1" xmlns="http://www.w3.org/2000/svg" xmlns:xlink="http://www.w3.org/1999/xlink">
    <title>icon-clear-filter</title>
    <g id="Symbols" stroke="none" stroke-width="1" fill="none" fill-rule="evenodd">
        <g id="tags" transform="translate(-67.000000, -8.000000)" stroke="#000000">
            <g id="icon-clear-filter" transform="translate(68.000000, 9.000000)">
                <circle id="Oval" cx="5" cy="5" r="5.5"></circle>
                <g id="close" transform="translate(3.000000, 3.000000)" fill="#000000" fill-rule="nonzero" stroke-width="0.5">
                    <path d="M4.00130875,3.75391618 C4.0011809,3.68499073 3.97253923,3.61919022 3.92218049,3.57212929 L2.35248771,2.00243651 L3.92218049,0.432743728 C3.98906082,0.370619534 4.01672095,0.276956772 3.99431958,0.188466249 C3.97191821,0.099975726 3.9030243,0.0307556097 3.81464058,0.00793649504 C3.72625686,-0.0148826196 3.63246449,0.0123347717 3.57002507,0.0789209027 L2.00033229,1.64861368 L0.430639508,0.0789209027 C0.368477526,0.0124691161 0.275032728,-0.0148092579 0.186882729,0.0077635058 C0.0987327296,0.0303362695 0.0298994525,0.0991695466 0.00732668877,0.187319546 C-0.015246075,0.275469545 0.0120322991,0.368914343 0.0784840856,0.431076325 L1.64817687,2.0007691 L0.0784840856,3.57046188 C0.011904669,3.63259575 -0.0154722188,3.72610384 0.00708413187,3.81433449 C0.0296404825,3.90256513 0.0985362578,3.97146091 0.186766907,3.99401726 C0.274997556,4.01657361 0.36850564,3.98919672 0.430639508,3.92261731 L2.00033229,2.35292453 L3.57002507,3.92261731 C3.63969445,3.99724332 3.74783962,4.02181717 3.8429171,3.98462662 C3.93799458,3.94743607 4.00076406,3.85600716 4.00130875,3.75391618 Z" id="Shape"></path>
                </g>
            </g>
        </g>
    </g>
</svg>