<?xml version="1.0" encoding="UTF-8"?>
<svg width="25px" height="13px" viewBox="0 0 25 13" version="1.1" xmlns="http://www.w3.org/2000/svg" xmlns:xlink="http://www.w3.org/1999/xlink">
    <title>icon-arrow-right</title>
    <g id="Page-1" stroke="none" stroke-width="1" fill="none" fill-rule="evenodd">
        <g id="Pressbooks---Directory---Default" transform="translate(-876.000000, -6708.000000)" fill="#BB2026" fill-rule="nonzero">
            <g id="Group-15" transform="translate(434.000000, 1535.000000)">
                <g id="Pagination" transform="translate(106.000000, 5170.000000)">
                    <path d="M348.5,22 C348.854927,22 349.138868,21.7275879 349.138868,21.3870728 L349.138868,-0.907379891 L353.907793,3.6679049 C354.159469,3.90936107 354.559568,3.90936107 354.811243,3.6679049 C355.062919,3.42644874 355.062919,3.04259534 354.811243,2.80113918 L348.951725,-2.82045567 C348.829114,-2.93808816 348.66133,-3 348.5,-3 C348.33867,-3 348.170886,-2.93808816 348.048275,-2.82045567 L342.188757,2.80113918 C341.937081,3.04259534 341.937081,3.42644874 342.188757,3.6679049 C342.440432,3.90936107 342.840531,3.90936107 343.092207,3.6679049 L347.861132,-0.907379891 L347.861132,21.3870728 C347.861132,21.7275879 348.145073,22 348.5,22 Z" id="icon-arrow-right" transform="translate(348.500000, 9.500000) rotate(-270.000000) translate(-348.500000, -9.500000) "></path>
                </g>
            </g>
        </g>
    </g>
</svg>