<?xml version="1.0" encoding="UTF-8"?>
<svg width="25px" height="13px" viewBox="0 0 25 13" version="1.1" xmlns="http://www.w3.org/2000/svg" xmlns:xlink="http://www.w3.org/1999/xlink">
    <title>icon-arrow-left</title>
    <g id="Page-1" stroke="none" stroke-width="1" fill="none" fill-rule="evenodd">
        <g id="Pressbooks---Directory---Default" transform="translate(-540.000000, -6708.000000)" fill="#BB2026" fill-rule="nonzero">
            <g id="Group-15" transform="translate(434.000000, 1535.000000)">
                <g id="Pagination" transform="translate(106.000000, 5170.000000)">
                    <path d="M12.5,22 C12.8549268,22 13.1388682,21.7275879 13.1388682,21.3870728 L13.1388682,-0.907379891 L17.9077935,3.6679049 C18.1594689,3.90936107 18.5595681,3.90936107 18.8112435,3.6679049 C19.0629188,3.42644874 19.0629188,3.04259534 18.8112435,2.80113918 L12.951725,-2.82045567 C12.8291139,-2.93808816 12.6613304,-3 12.5,-3 C12.3386696,-3 12.1708861,-2.93808816 12.048275,-2.82045567 L6.18875652,2.80113918 C5.93708116,3.04259534 5.93708116,3.42644874 6.18875652,3.6679049 C6.44043187,3.90936107 6.84053115,3.90936107 7.0922065,3.6679049 L11.8611318,-0.907379891 L11.8611318,21.3870728 C11.8611318,21.7275879 12.1450732,22 12.5,22 Z" id="icon-arrow-left" transform="translate(12.500000, 9.500000) scale(-1, 1) rotate(-270.000000) translate(-12.500000, -9.500000) "></path>
                </g>
            </g>
        </g>
    </g>
</svg>