<?xml version="1.0" encoding="UTF-8"?>
<svg width="179px" height="45px" viewBox="0 0 179 45" version="1.1" xmlns="http://www.w3.org/2000/svg" xmlns:xlink="http://www.w3.org/1999/xlink">
    <title>logo-pressbooks-directory</title>
    <g id="Page-1" stroke="none" stroke-width="1" fill="none" fill-rule="evenodd">
        <g id="Pressbooks---Directory---Default" transform="translate(-131.000000, -18.000000)">
            <g id="logo-pressbooks-directory" transform="translate(131.000000, 18.000000)">
                <g id="PressbooksLogo">
                    <g id="Group" transform="translate(53.000000, 1.000000)" fill="#000000">
                        <path d="M5.550636,0.802862667 C7.09642267,0.802862667 8.32832,1.29025867 9.24790533,2.26505067 C10.0988767,3.19567733 10.5247567,4.38262067 10.5247567,5.827458 L10.5247567,8.88590733 C10.5247567,10.275538 10.0405153,11.46327 9.071244,12.4491033 C8.10197267,13.4349367 6.92843667,13.9278533 5.550636,13.9278533 L3.719352,13.9278533 L3.719352,21.859474 L0.543391333,21.859474 L0.543391333,0.802862667 L5.550636,0.802862667 Z M7.44974533,5.877144 C7.44974533,5.328232 7.28412533,4.88579 6.95446267,4.54902933 C6.62401133,4.21305733 6.18393533,4.04507133 5.63502333,4.04507133 L3.719352,4.04507133 L3.719352,10.7834393 L5.63502333,10.7834393 C6.13898133,10.7834393 6.568016,10.6036233 6.92055,10.2455687 C7.27387267,9.88672533 7.44974533,9.45532467 7.44974533,8.95136667 L7.44974533,5.877144 Z" id="Shape" fill-rule="nonzero"></path>
                        <path d="M18.069142,0.802862667 C19.83891,0.802862667 21.1386327,1.29025867 21.9675213,2.26505067 C22.6954607,3.11681067 23.0598247,4.30454267 23.0598247,5.827458 L23.0598247,8.88590733 C23.0598247,10.3764873 22.4943507,11.635988 21.362614,12.6667753 L23.714418,21.8586853 L20.2797747,21.8586853 L18.3546393,13.9270647 C18.2647313,13.9270647 18.1700913,13.9270647 18.069142,13.9270647 L16.237858,13.9270647 L16.237858,21.8586853 L13.0618973,21.8586853 L13.0618973,0.802862667 L18.069142,0.802862667 Z M19.9682513,5.877144 C19.9682513,4.656288 19.363344,4.04586 18.1535293,4.04586 L16.237858,4.04586 L16.237858,10.784228 L18.1535293,10.784228 C18.6574873,10.784228 19.086522,10.604412 19.439056,10.2463573 C19.7923787,9.887514 19.9682513,9.45611333 19.9682513,8.95215533 L19.9682513,5.877144 Z" id="Shape" fill-rule="nonzero"></path>
                        <polygon id="Path" points="26.4368953 21.8578967 26.4368953 0.785512 35.4773813 0.785512 35.4773813 3.97803467 29.612856 3.97803467 29.612856 9.72504867 33.897682 9.72504867 33.897682 12.91836 29.612856 12.91836 29.612856 18.665374 35.4773813 18.665374 35.4773813 21.8578967"></polygon>
                        <path d="M48.164662,16.6156293 C48.1867447,18.0825493 47.8058187,19.337318 47.021884,20.3791467 C46.506096,21.0850033 45.7781567,21.5834407 44.8372773,21.8744587 C44.3333193,22.0306147 43.744974,22.1094813 43.07303,22.1094813 C41.8293027,22.1094813 40.7985153,21.8011127 39.9814567,21.185164 C39.2976827,20.681206 38.757446,19.995066 38.359958,19.1275327 C37.96247,18.2599993 37.7298133,17.264702 37.6627767,16.1447953 L40.6873133,15.9263347 C40.8213867,17.1542887 41.1463173,18.0439047 41.6621053,18.5951827 C42.0422427,19.0115987 42.4799527,19.2087653 42.9728693,19.1866827 C43.6676847,19.1646 44.2221173,18.8223187 44.6361673,18.1606273 C44.8491073,17.8356967 44.9555773,17.3695947 44.9555773,16.7638987 C44.9555773,15.890056 44.5580893,15.0201567 43.7623247,14.1565667 C43.1353347,13.5627007 42.1936667,12.6715073 40.938898,11.482198 C39.886028,10.462452 39.140738,9.54838733 38.7046053,8.74079267 C38.2337713,7.83303733 37.99796,6.84641533 37.99796,5.78092667 C37.99796,3.863678 38.6423007,2.41174267 39.9301933,1.42512067 C40.7251693,0.831254667 41.7117913,0.533927333 42.8876933,0.533927333 C44.01943,0.533927333 44.9887013,0.785512 45.7947187,1.29025867 C46.4217087,1.682226 46.9288213,2.23034933 47.315268,2.93699467 C47.7017147,3.64285133 47.9343713,4.455178 48.0124493,5.373186 L44.9713507,5.92761867 C44.8814427,5.06481733 44.6353787,4.393662 44.2315813,3.910998 C43.9397747,3.56477333 43.520204,3.390478 42.971292,3.390478 C42.3884673,3.390478 41.946814,3.648372 41.643966,4.16258267 C41.397902,4.57742133 41.2740813,5.09320933 41.2740813,5.709158 C41.2740813,6.67290867 41.6881313,7.65243267 42.5178087,8.650096 C42.8309093,9.031022 43.3017433,9.47977333 43.929522,9.993984 C44.6692913,10.6099327 45.1558987,11.042122 45.39171,11.288186 C46.1756447,12.0729093 46.780552,12.8458027 47.206432,13.606866 C47.407542,13.9657093 47.5700073,14.2961607 47.693828,14.5990087 C47.996676,15.3490307 48.1536207,16.0217633 48.164662,16.6156293 Z" id="Path"></path>
                        <path d="M60.851154,16.6156293 C60.8740253,18.0825493 60.4930993,19.337318 59.7091647,20.3791467 C59.1941653,21.0850033 58.4654373,21.5834407 57.5237693,21.8744587 C57.0198113,22.0306147 56.431466,22.1094813 55.7603107,22.1094813 C54.5165833,22.1094813 53.4850073,21.8011127 52.6679487,21.185164 C51.9849633,20.681206 51.443938,19.995066 51.04645,19.1275327 C50.648962,18.2599993 50.4163053,17.264702 50.3492687,16.1447953 L53.374594,15.9263347 C53.5086673,17.1542887 53.833598,18.0439047 54.3485973,18.5951827 C54.7287347,19.0115987 55.165656,19.2087653 55.6585727,19.1866827 C56.353388,19.1646 56.9078207,18.8223187 57.3218707,18.1606273 C57.5355993,17.8356967 57.6420693,17.3695947 57.6420693,16.7638987 C57.6420693,15.890056 57.2437927,15.0201567 56.448028,14.1565667 C55.821038,13.5627007 54.8801587,12.6715073 53.6246013,11.482198 C52.57252,10.462452 51.82723,9.54838733 51.3903087,8.74079267 C50.9194747,7.83224867 50.684452,6.84562667 50.684452,5.780138 C50.684452,3.86288933 51.3287927,2.410954 52.617474,1.424332 C53.41245,0.830466 54.3982833,0.533138667 55.574974,0.533138667 C56.705922,0.533138667 57.6751933,0.784723333 58.4819993,1.28947 C59.1089893,1.68143733 59.616102,2.22956067 60.0025487,2.936206 C60.3889953,3.64206267 60.621652,4.45438933 60.7005187,5.37239733 L57.65942,5.92683 C57.569512,5.06402867 57.3226593,4.39287333 56.9196507,3.91020933 C56.627844,3.56398467 56.2082733,3.38968933 55.6585727,3.38968933 C55.0765367,3.38968933 54.6340947,3.64758333 54.3312467,4.161794 C54.0851827,4.57663267 53.961362,5.09242067 53.961362,5.70836933 C53.961362,6.67212 54.375412,7.651644 55.2050893,8.64930733 C55.5174013,9.03023333 55.989024,9.47898467 56.616014,9.99319533 C57.3557833,10.609144 57.8431793,11.0413333 58.078202,11.2873973 C58.8621367,12.0721207 59.4678327,12.845014 59.8937127,13.6060773 C60.0948227,13.9649207 60.2580767,14.295372 60.3811087,14.59822 C60.683168,15.3490307 60.8401127,16.0217633 60.851154,16.6156293 Z" id="Path"></path>
                        <path d="M63.489244,21.8578967 L63.489244,0.785512 L68.244904,0.785512 C69.498884,0.785512 70.6306207,1.11596333 71.6393253,1.776866 C72.5021267,2.337608 73.1180753,3.20593 73.48796,4.381832 C73.6898587,5.00961067 73.790808,5.754112 73.790808,6.61691333 C73.790808,8.02862667 73.414614,9.16036333 72.664592,10.0113347 C72.3507027,10.370178 71.980818,10.644634 71.5557267,10.8347027 C72.2615833,11.103638 72.8601813,11.635988 73.353098,12.430964 C73.6780287,12.9688347 73.9193607,13.6628613 74.0755167,14.5146213 C74.1543833,14.9523313 74.1938167,15.4389387 74.1938167,15.9768093 C74.1938167,17.309656 73.9414433,18.4413927 73.4374853,19.3712307 C73.0447293,20.0999587 72.4902967,20.6819947 71.7741873,21.118916 C70.9673813,21.6118327 70.166096,21.8586853 69.37112,21.8586853 L63.489244,21.8586853 L63.489244,21.8578967 Z M66.9167893,9.38986533 L68.244904,9.38986533 C69.2307373,9.38986533 69.89164,8.90877867 70.227612,7.945028 C70.350644,7.58618467 70.41216,7.14374267 70.41216,6.61691333 C70.41216,5.74307067 70.19922,5.082168 69.77334,4.63341667 C69.3813727,4.21936667 68.8711053,4.01194733 68.244904,4.01194733 L66.9167893,4.01194733 L66.9167893,9.38986533 L66.9167893,9.38986533 Z M66.9167893,18.7158487 L68.244904,18.7158487 C69.3198567,18.7158487 70.0651467,18.161416 70.4799853,17.0525507 C70.6251,16.6724133 70.6976573,16.2347033 70.6976573,15.7417867 C70.6976573,14.5658847 70.473676,13.708604 70.0249247,13.1707333 C69.621916,12.6778167 69.02805,12.430964 68.2441153,12.430964 L66.9160007,12.430964 L66.9160007,18.7158487 L66.9167893,18.7158487 Z" id="Shape" fill-rule="nonzero"></path>
                        <path d="M81.9235387,0.533927333 C83.323422,0.533927333 84.5127313,1.026844 85.4938327,2.01267733 C86.4733567,2.99851067 86.9639073,4.18624267 86.9639073,5.57508467 L86.9639073,17.0691127 C86.9639073,18.468996 86.470202,19.6598827 85.4851573,20.6394067 C84.4985353,21.6197193 83.3108033,22.1094813 81.92275,22.1094813 C80.522078,22.1094813 79.3351347,21.6165647 78.359554,20.6307313 C77.384762,19.6456867 76.897366,18.4579547 76.897366,17.068324 L76.897366,5.57508467 C76.897366,4.17520133 77.3902827,2.98510333 78.376116,2.00479067 C79.3619493,1.024478 80.5449493,0.533927333 81.9235387,0.533927333 Z M83.6530847,5.508048 C83.6530847,5.00330133 83.477212,4.57505533 83.124678,4.22252133 C82.7713553,3.86998733 82.3431093,3.693326 81.8383627,3.693326 C81.3344047,3.693326 80.903004,3.86998733 80.5441607,4.22252133 C80.1853173,4.57505533 80.00629,5.00330133 80.00629,5.508048 L80.00629,17.0352 C80.00629,17.5399467 80.1853173,17.9681927 80.5441607,18.3207267 C80.903004,18.6732607 81.3344047,18.8507107 81.8383627,18.8507107 C82.3431093,18.8507107 82.7713553,18.6732607 83.124678,18.3207267 C83.477212,17.9681927 83.6530847,17.5399467 83.6530847,17.0352 L83.6530847,5.508048 Z" id="Shape" fill-rule="nonzero"></path>
                        <path d="M94.7267533,0.533927333 C96.1266367,0.533927333 97.3175233,1.026844 98.2970473,2.01267733 C99.2781487,2.99851067 99.7679107,4.18624267 99.7679107,5.57508467 L99.7679107,17.0691127 C99.7679107,18.468996 99.274994,19.6598827 98.2891607,20.6394067 C97.3033273,21.6197193 96.1155953,22.1094813 94.7259647,22.1094813 C93.3260813,22.1094813 92.1383493,21.6165647 91.1635573,20.6307313 C90.189554,19.6456867 89.7013693,18.4579547 89.7013693,17.068324 L89.7013693,5.57508467 C89.7013693,4.17520133 90.194286,2.98510333 91.1801193,2.00479067 C92.1659527,1.024478 93.3489527,0.533927333 94.7267533,0.533927333 Z M96.4578767,5.508048 C96.4578767,5.00330133 96.2804267,4.57505533 95.9278927,4.22252133 C95.5753587,3.86998733 95.1471127,3.693326 94.642366,3.693326 C94.1376193,3.693326 93.7062187,3.86998733 93.348164,4.22252133 C92.9901093,4.57505533 92.8102933,5.00330133 92.8102933,5.508048 L92.8102933,17.0352 C92.8102933,17.5399467 92.9901093,17.9681927 93.348164,18.3207267 C93.7062187,18.6732607 94.1376193,18.8507107 94.642366,18.8507107 C95.1471127,18.8507107 95.5753587,18.6732607 95.9278927,18.3207267 C96.2804267,17.9681927 96.4578767,17.5399467 96.4578767,17.0352 L96.4578767,5.508048 Z" id="Shape" fill-rule="nonzero"></path>
                        <polygon id="Path" points="105.732597 15.17789 105.732597 21.8578967 102.556636 21.8578967 102.556636 0.785512 105.732597 0.785512 105.732597 8.29677333 109.614414 0.785512 113.00016 0.785512 108.653029 9.38040133 113.751759 21.857108 110.018211 21.857108 106.68294 13.301652"></polygon>
                        <path d="M125.141683,16.6156293 C125.164555,18.0825493 124.783629,19.337318 123.999694,20.3791467 C123.484695,21.0850033 122.755967,21.5834407 121.814299,21.8744587 C121.310341,22.0306147 120.721995,22.1094813 120.05084,22.1094813 C118.807113,22.1094813 117.775537,21.8011127 116.958478,21.185164 C116.275493,20.681206 115.734467,19.995066 115.336979,19.1275327 C114.938703,18.2592107 114.706835,17.264702 114.639009,16.1447953 L117.664335,15.9263347 C117.798408,17.1542887 118.123339,18.0439047 118.638338,18.5951827 C119.018475,19.0115987 119.455397,19.2087653 119.948313,19.1866827 C120.643129,19.1646 121.197561,18.8223187 121.611611,18.1606273 C121.82534,17.8356967 121.93181,17.3695947 121.93181,16.7638987 C121.93181,15.890056 121.533533,15.0201567 120.737769,14.1565667 C120.110779,13.5627007 119.169899,12.6715073 117.914342,11.482198 C116.862261,10.462452 116.116971,9.54838733 115.680049,8.74079267 C115.209215,7.83224867 114.973404,6.84562667 114.973404,5.780138 C114.973404,3.86288933 115.617745,2.410954 116.906426,1.424332 C117.701402,0.830466 118.687235,0.533138667 119.863926,0.533138667 C120.994874,0.533138667 121.964145,0.784723333 122.770951,1.28947 C123.397941,1.68143733 123.905054,2.22956067 124.291501,2.936206 C124.677947,3.64206267 124.910604,4.45438933 124.989471,5.37239733 L121.948372,5.92683 C121.858464,5.06402867 121.611611,4.39287333 121.208603,3.91020933 C120.916796,3.56398467 120.497225,3.38968933 119.947525,3.38968933 C119.365489,3.38968933 118.923047,3.64758333 118.620199,4.161794 C118.374135,4.57663267 118.250314,5.09242067 118.250314,5.70836933 C118.250314,6.67212 118.664364,7.651644 119.494041,8.64930733 C119.806353,9.03023333 120.277976,9.47898467 120.904966,9.99319533 C121.644735,10.609144 122.132131,11.0413333 122.367154,11.2873973 C123.151089,12.0721207 123.756785,12.845014 124.182665,13.6060773 C124.383775,13.9649207 124.547029,14.295372 124.670061,14.59822 C124.973697,15.3490307 125.130642,16.0217633 125.141683,16.6156293 Z" id="Path"></path>
                    </g>
                    <g id="Group-2" transform="translate(0.000000, 0.900000)">
                        <path d="M44.9044106,42.5445429 C44.9044106,43.3014214 44.2765997,43.9117077 43.5053803,43.9117077 L1.39903029,43.9117077 C0.627810857,43.913298 0,43.3014214 0,42.5445429 L0,1.36875514 C0,0.61347 0.627810857,0 1.39903029,0 L43.5037869,0 C44.2765997,0 44.9044106,0.61347 44.9044106,1.36875514 L44.9044106,42.5445429 L44.9044106,42.5445429 Z" id="Path" fill="#BB2026"></path>
                        <g id="Group" transform="translate(10.460571, 10.572686)" fill="#FFFFFF" fill-rule="nonzero">
                            <g id="Group-14">
                                <path d="M5.29336971,0.0175277143 C6.92822743,0.0175277143 8.231652,0.521051143 9.20364343,1.52969143 C10.1039306,2.49212229 10.5548709,3.72065571 10.5548709,5.21369829 L10.5548709,8.376654 C10.5548709,9.81233314 10.0417869,11.0408666 9.01721229,12.0606609 C7.99263771,13.0804551 6.75135686,13.5887589 5.29336971,13.5887589 L3.357354,13.5887589 L3.357354,21.7917291 L-1.40687462e-13,21.7917291 L-1.40687462e-13,0.0175277143 L5.29336971,0.0175277143 Z M7.30268314,5.264688 C7.30268314,4.69742743 7.127406,4.24011343 6.77844514,3.892746 C6.42948429,3.54537857 5.96420314,3.37169486 5.38419514,3.37169486 L3.357354,3.37169486 L3.357354,10.3413514 L5.38260171,10.3413514 C5.91480686,10.3413514 6.368934,10.1565137 6.74179629,9.78524486 C7.11465857,9.413976 7.30108971,8.967816 7.30108971,8.44676486 L7.30108971,5.264688 L7.30268314,5.264688 Z" id="Shape"></path>
                                <path d="M13.2366111,21.7917291 L13.2366111,2.23820962e-14 L18.2654717,2.23820962e-14 C19.5927977,2.23820962e-14 20.7878691,0.340993714 21.8538729,1.02457457 C22.765314,1.60458257 23.4170263,2.50168286 23.8090097,3.71906229 C24.0225291,4.36758771 24.1292889,5.13880714 24.1292889,6.02953371 C24.1292889,7.48911429 23.7309317,8.66028429 22.9374043,9.53985686 C22.6059711,9.91112571 22.2139877,10.194756 21.7646409,10.3923411 C22.5103654,10.6695977 23.14455,11.220924 23.6656011,12.0431331 C24.0081883,12.5992397 24.2631369,13.317876 24.4288534,14.199042 C24.5117117,14.6499823 24.5531409,15.1550991 24.5531409,15.7096123 C24.5531409,17.0895214 24.2870383,18.259098 23.7532397,19.2199354 C23.3389483,19.9736271 22.7525666,20.5759431 21.9940946,21.0268834 C21.1416103,21.5367806 20.2939063,21.7917291 19.452576,21.7917291 L13.2366111,21.7917291 Z M16.8616611,8.89770514 L18.2654717,8.89770514 C19.307574,8.89770514 20.0070891,8.40055543 20.3624237,7.40306914 C20.4930849,7.03180029 20.5584154,6.57448629 20.5584154,6.02953371 C20.5584154,5.12605971 20.333742,4.44247886 19.8828017,3.97879114 C19.4685103,3.55015886 18.928338,3.335046 18.2654717,3.335046 L16.8616611,3.335046 L16.8616611,8.89770514 Z M16.8616611,18.5427283 L18.2654717,18.5427283 C19.4015863,18.5427283 20.1903334,17.969094 20.6285263,16.8218254 C20.7830889,16.4282486 20.8595734,15.9757149 20.8595734,15.4658177 C20.8595734,14.2484383 20.6221526,13.3640854 20.1489043,12.8063854 C19.7218654,12.2964883 19.0940546,12.0431331 18.2654717,12.0431331 L16.8616611,12.0431331 L16.8616611,18.5427283 Z" id="Shape"></path>
                            </g>
                        </g>
                    </g>
                </g>
                <path d="M56.7548511,42.8212291 C57.93015,42.8212291 58.8688628,42.4450652 59.5709894,41.6927374 C60.273116,40.9404097 60.6241793,39.9310987 60.6241793,38.6648045 L60.6241793,38.6648045 L60.6241793,31.3351955 C60.6241793,30.0689013 60.273116,29.0595903 59.5709894,28.3072626 C58.8688628,27.5549348 57.93015,27.1787709 56.7548511,27.1787709 L56.7548511,27.1787709 L53.2289543,27.1787709 C53.0763181,27.1787709 53,27.2532588 53,27.4022346 L53,27.4022346 L53,42.5977654 C53,42.7467412 53.0763181,42.8212291 53.2289543,42.8212291 L53.2289543,42.8212291 L56.7548511,42.8212291 Z M54.7171575,41.4357542 C54.656103,41.4357542 54.6255758,41.405959 54.6255758,41.3463687 L54.6255758,41.3463687 L54.6255758,28.6536313 C54.6255758,28.594041 54.656103,28.5642458 54.7171575,28.5642458 L54.7171575,28.5642458 L56.7319556,28.5642458 C57.4340823,28.5642458 57.9835727,28.8175047 58.3804269,29.3240223 C58.777281,29.83054 58.9757081,30.5232775 58.9757081,31.4022346 L58.9757081,31.4022346 L58.9757081,38.5977654 C58.9604445,39.461825 58.7505697,40.1471136 58.3460837,40.6536313 C57.9415977,41.160149 57.403555,41.4134078 56.7319556,41.4134078 L56.7319556,41.4134078 L54.7171575,41.4357542 Z M66.6354044,42.8212291 C66.7880407,42.8212291 66.8643588,42.7467412 66.8643588,42.5977654 L66.8643588,42.5977654 L66.8643588,27.4022346 C66.8643588,27.2532588 66.7880407,27.1787709 66.6354044,27.1787709 L66.6354044,27.1787709 L65.4677373,27.1787709 C65.3151011,27.1787709 65.238783,27.2532588 65.238783,27.4022346 L65.238783,27.4022346 L65.238783,42.5977654 C65.238783,42.7467412 65.3151011,42.8212291 65.4677373,42.8212291 L65.4677373,42.8212291 L66.6354044,42.8212291 Z M73.1503291,42.8212291 C73.3029653,42.8212291 73.3792834,42.7467412 73.3792834,42.5977654 L73.3792834,42.5977654 L73.3792834,35.7597765 C73.3792834,35.7001862 73.4098107,35.6703911 73.4708651,35.6703911 L73.4708651,35.6703911 L75.4627679,35.6703911 C75.5085587,35.6703911 75.539086,35.6927374 75.5543496,35.7374302 L75.5543496,35.7374302 L77.8896838,42.6424581 C77.9354747,42.7616387 78.0270564,42.8212291 78.164429,42.8212291 L78.164429,42.8212291 L79.3549915,42.8212291 C79.4923641,42.8212291 79.5610504,42.7690875 79.5610504,42.6648045 L79.5610504,42.6648045 L79.538155,42.575419 L77.0425528,35.5810056 C77.0272891,35.5214153 77.0501846,35.4841713 77.1112391,35.4692737 C77.8438929,35.1862197 78.4239106,34.6945996 78.851292,33.9944134 C79.2786734,33.2942272 79.4923641,32.4599628 79.4923641,31.4916201 C79.4923641,30.2104283 79.1489326,29.1713222 78.4620696,28.3743017 C77.7752066,27.5772812 76.8746529,27.1787709 75.7604085,27.1787709 L75.7604085,27.1787709 L71.982662,27.1787709 C71.8300258,27.1787709 71.7537076,27.2532588 71.7537076,27.4022346 L71.7537076,27.4022346 L71.7537076,42.5977654 C71.7537076,42.7467412 71.8300258,42.8212291 71.982662,42.8212291 L71.982662,42.8212291 L73.1503291,42.8212291 Z M75.5314542,34.396648 L73.4708651,34.396648 C73.4098107,34.396648 73.3792834,34.3668529 73.3792834,34.3072626 L73.3792834,34.3072626 L73.3792834,28.6536313 C73.3792834,28.594041 73.4098107,28.5642458 73.4708651,28.5642458 L73.4708651,28.5642458 L75.5314542,28.5642458 C76.2335808,28.5642458 76.7983348,28.8324022 77.2257162,29.3687151 C77.6530977,29.9050279 77.8667884,30.6126629 77.8667884,31.4916201 C77.8667884,32.3705773 77.6530977,33.0744879 77.2257162,33.603352 C76.7983348,34.132216 76.2335808,34.396648 75.5314542,34.396648 L75.5314542,34.396648 Z M90.5176892,42.8212291 C90.6703254,42.8212291 90.7466435,42.7467412 90.7466435,42.5977654 L90.7466435,42.5977654 L90.7466435,41.6592179 C90.7466435,41.5102421 90.6703254,41.4357542 90.5176892,41.4357542 L90.5176892,41.4357542 L85.2059486,41.4357542 C85.1448941,41.4357542 85.1143669,41.405959 85.1143669,41.3463687 L85.1143669,41.3463687 L85.1143669,35.7821229 C85.1143669,35.7225326 85.1448941,35.6927374 85.2059486,35.6927374 L85.2059486,35.6927374 L88.5486819,35.6927374 C88.7013181,35.6927374 88.7776362,35.6182495 88.7776362,35.4692737 L88.7776362,35.4692737 L88.7776362,34.5083799 C88.7776362,34.3594041 88.7013181,34.2849162 88.5486819,34.2849162 L88.5486819,34.2849162 L85.2059486,34.2849162 C85.1448941,34.2849162 85.1143669,34.255121 85.1143669,34.1955307 L85.1143669,34.1955307 L85.1143669,28.6536313 C85.1143669,28.594041 85.1448941,28.5642458 85.2059486,28.5642458 L85.2059486,28.5642458 L90.5176892,28.5642458 C90.6703254,28.5642458 90.7466435,28.4897579 90.7466435,28.3407821 L90.7466435,28.3407821 L90.7466435,27.4022346 C90.7466435,27.2532588 90.6703254,27.1787709 90.5176892,27.1787709 L90.5176892,27.1787709 L83.7177454,27.1787709 C83.5651092,27.1787709 83.4887911,27.2532588 83.4887911,27.4022346 L83.4887911,27.4022346 L83.4887911,42.5977654 C83.4887911,42.7467412 83.5651092,42.8212291 83.7177454,42.8212291 L83.7177454,42.8212291 L90.5176892,42.8212291 Z M98.4063398,43 C99.5816387,43 100.527983,42.6499069 101.245374,41.9497207 C101.962764,41.2495345 102.321459,40.310987 102.321459,39.1340782 L102.321459,39.1340782 L102.321459,38.7765363 C102.321459,38.6275605 102.245141,38.5530726 102.092505,38.5530726 L102.092505,38.5530726 L100.901942,38.4860335 C100.749306,38.4860335 100.672988,38.5605214 100.672988,38.7094972 L100.672988,38.7094972 L100.672988,39.2681564 C100.672988,39.9683426 100.466929,40.5344507 100.054811,40.9664804 C99.6426932,41.3985102 99.0932028,41.6145251 98.4063398,41.6145251 C97.7347404,41.6145251 97.1890659,41.3985102 96.7693163,40.9664804 C96.3495667,40.5344507 96.1396919,39.9683426 96.1396919,39.2681564 L96.1396919,39.2681564 L96.1396919,30.7318436 C96.1396919,30.0316574 96.3495667,29.4655493 96.7693163,29.0335196 C97.1890659,28.6014898 97.7347404,28.3854749 98.4063398,28.3854749 C99.0932028,28.3854749 99.6426932,28.6014898 100.054811,29.0335196 C100.466929,29.4655493 100.672988,30.0316574 100.672988,30.7318436 L100.672988,30.7318436 L100.672988,31.2905028 C100.672988,31.4394786 100.749306,31.5139665 100.901942,31.5139665 L100.901942,31.5139665 L102.092505,31.4469274 C102.245141,31.4469274 102.321459,31.3724395 102.321459,31.2234637 L102.321459,31.2234637 L102.321459,30.8435754 C102.321459,29.6666667 101.96658,28.7318436 101.256821,28.0391061 C100.547063,27.3463687 99.5969023,27 98.4063398,27 C97.2310409,27 96.2885122,27.3500931 95.5787538,28.0502793 C94.8689953,28.7504655 94.5141161,29.6815642 94.5141161,30.8435754 L94.5141161,30.8435754 L94.5141161,39.1340782 C94.5141161,40.310987 94.8689953,41.2495345 95.5787538,41.9497207 C96.2885122,42.6499069 97.2310409,43 98.4063398,43 Z M110.393273,42.8212291 C110.545909,42.8212291 110.622227,42.7467412 110.622227,42.5977654 L110.622227,42.5977654 L110.622227,28.6536313 C110.622227,28.594041 110.652755,28.5642458 110.713809,28.5642458 L110.713809,28.5642458 L113.736006,28.5642458 C113.888643,28.5642458 113.964961,28.4897579 113.964961,28.3407821 L113.964961,28.3407821 L113.964961,27.4022346 C113.964961,27.2532588 113.888643,27.1787709 113.736006,27.1787709 L113.736006,27.1787709 L106.066036,27.1787709 C105.9134,27.1787709 105.837082,27.2532588 105.837082,27.4022346 L105.837082,27.4022346 L105.837082,28.3407821 C105.837082,28.4897579 105.9134,28.5642458 106.066036,28.5642458 L106.066036,28.5642458 L108.90507,28.5642458 C108.966124,28.5642458 108.996652,28.594041 108.996652,28.6536313 L108.996652,28.6536313 L108.996652,42.5977654 C108.996652,42.7467412 109.07297,42.8212291 109.225606,42.8212291 L109.225606,42.8212291 L110.393273,42.8212291 Z M120.823317,43 C122.013879,43 122.975488,42.6387337 123.708141,41.9162011 C124.440795,41.1936685 124.807122,40.2513966 124.807122,39.0893855 L124.807122,39.0893855 L124.807122,30.9106145 C124.807122,29.7337058 124.440795,28.7877095 123.708141,28.0726257 C122.975488,27.3575419 122.013879,27 120.823317,27 C119.648018,27 118.697857,27.3575419 117.972835,28.0726257 C117.247813,28.7877095 116.885302,29.7337058 116.885302,30.9106145 L116.885302,30.9106145 L116.885302,39.0893855 C116.885302,40.2662942 117.247813,41.2122905 117.972835,41.9273743 C118.697857,42.6424581 119.648018,43 120.823317,43 Z M120.823317,41.6145251 C120.136454,41.6145251 119.579332,41.3873371 119.15195,40.9329609 C118.724569,40.4785847 118.510878,39.8938547 118.510878,39.1787709 L118.510878,39.1787709 L118.510878,30.8435754 C118.510878,30.113594 118.724569,29.5214153 119.15195,29.0670391 C119.579332,28.6126629 120.136454,28.3854749 120.823317,28.3854749 C121.525443,28.3854749 122.094013,28.6126629 122.529027,29.0670391 C122.96404,29.5214153 123.181546,30.113594 123.181546,30.8435754 L123.181546,30.8435754 L123.181546,39.1787709 C123.181546,39.8938547 122.96404,40.4785847 122.529027,40.9329609 C122.094013,41.3873371 121.525443,41.6145251 120.823317,41.6145251 Z M130.70387,42.8212291 C130.856506,42.8212291 130.932824,42.7467412 130.932824,42.5977654 L130.932824,42.5977654 L130.932824,35.7597765 C130.932824,35.7001862 130.963352,35.6703911 131.024406,35.6703911 L131.024406,35.6703911 L133.016309,35.6703911 C133.0621,35.6703911 133.092627,35.6927374 133.107891,35.7374302 L133.107891,35.7374302 L135.443225,42.6424581 C135.489016,42.7616387 135.580597,42.8212291 135.71797,42.8212291 L135.71797,42.8212291 L136.908533,42.8212291 C137.045905,42.8212291 137.114592,42.7690875 137.114592,42.6648045 L137.114592,42.6648045 L137.091696,42.575419 L134.596094,35.5810056 C134.58083,35.5214153 134.603726,35.4841713 134.66478,35.4692737 C135.397434,35.1862197 135.977452,34.6945996 136.404833,33.9944134 C136.832214,33.2942272 137.045905,32.4599628 137.045905,31.4916201 C137.045905,30.2104283 136.702474,29.1713222 136.015611,28.3743017 C135.328748,27.5772812 134.428194,27.1787709 133.31395,27.1787709 L133.31395,27.1787709 L129.536203,27.1787709 C129.383567,27.1787709 129.307249,27.2532588 129.307249,27.4022346 L129.307249,27.4022346 L129.307249,42.5977654 C129.307249,42.7467412 129.383567,42.8212291 129.536203,42.8212291 L129.536203,42.8212291 L130.70387,42.8212291 Z M133.084995,34.396648 L131.024406,34.396648 C130.963352,34.396648 130.932824,34.3668529 130.932824,34.3072626 L130.932824,34.3072626 L130.932824,28.6536313 C130.932824,28.594041 130.963352,28.5642458 131.024406,28.5642458 L131.024406,28.5642458 L133.084995,28.5642458 C133.787122,28.5642458 134.351876,28.8324022 134.779257,29.3687151 C135.206639,29.9050279 135.420329,30.6126629 135.420329,31.4916201 C135.420329,32.3705773 135.206639,33.0744879 134.779257,33.603352 C134.351876,34.132216 133.787122,34.396648 133.084995,34.396648 L133.084995,34.396648 Z M144.568229,42.7988827 C144.720865,42.7988827 144.797183,42.7243948 144.797183,42.575419 L144.797183,42.575419 L144.797183,35.8938547 C144.797183,35.8342644 144.804815,35.7970205 144.820079,35.7821229 L144.820079,35.7821229 L147.979649,27.4469274 C148.010176,27.3724395 148.00636,27.3091248 147.968201,27.2569832 C147.930042,27.2048417 147.872803,27.1787709 147.796485,27.1787709 L147.796485,27.1787709 L146.560132,27.1787709 C146.422759,27.1787709 146.331177,27.2383613 146.285386,27.3575419 L146.285386,27.3575419 L144.041634,33.9050279 C144.02637,33.9348231 144.003475,33.9497207 143.972948,33.9497207 C143.94242,33.9497207 143.919525,33.9348231 143.904261,33.9050279 L143.904261,33.9050279 L141.660509,27.3575419 C141.614718,27.2383613 141.523136,27.1787709 141.385764,27.1787709 L141.385764,27.1787709 L140.14941,27.1787709 C140.012038,27.1787709 139.943351,27.2383613 139.943351,27.3575419 L139.943351,27.3575419 L139.966247,27.4469274 L143.148712,35.7821229 C143.163976,35.7970205 143.171607,35.8342644 143.171607,35.8938547 L143.171607,35.8938547 L143.171607,42.575419 C143.171607,42.7243948 143.247926,42.7988827 143.400562,42.7988827 L143.400562,42.7988827 L144.568229,42.7988827 Z" id="DIRECTORY" fill="#000000" fill-rule="nonzero"></path>
            </g>
        </g>
    </g>
</svg>