<?xml version="1.0" encoding="UTF-8"?>
<svg width="30px" height="30px" viewBox="0 0 30 30" version="1.1" xmlns="http://www.w3.org/2000/svg" xmlns:xlink="http://www.w3.org/1999/xlink">
    <title>icon_twitter</title>
    <g id="Symbols" stroke="none" stroke-width="1" fill="none" fill-rule="evenodd">
        <g id="footer" transform="translate(-1146.000000, -202.000000)" fill="#BB2026" fill-rule="nonzero">
            <g id="twitter-icon" transform="translate(1146.000000, 202.000000)">
                <path d="M15,0 C6.75,0 0,6.75 0,15 C0,23.25 6.75,30 15,30 C23.25,30 30,23.25 30,15 C30,6.75 23.25,0 15,0 Z M22.625,12 C22.875,17 19.125,22.625 12.375,22.625 C10.375,22.625 8.5,22 6.875,21 C8.75,21.25 10.625,20.75 12.25,19.5 C10.625,19.5 9.375,18.375 8.875,17 C9.5,17.125 10,17.125 10.5,17 C8.75,16.75 7.5,15.125 7.625,13.5 C8.125,13.75 8.625,13.875 9.25,14 C7.625,12.875 7.25,10.875 8.125,9.25 C9.875,11.375 12.5,12.875 15.5,13 C15,10.75 16.625,8.625 19,8.625 C20,8.625 21,9 21.625,9.75 C22.5,9.625 23.25,9.25 23.875,8.875 C23.625,9.75 23,10.375 22.25,10.875 C23,10.75 23.625,10.625 24.25,10.25 C23.875,10.875 23.25,11.5 22.625,12 Z" id="Shape"></path>
            </g>
        </g>
    </g>
</svg>