<?xml version="1.0" encoding="UTF-8"?>
<svg width="30px" height="30px" viewBox="0 0 30 30" version="1.1" xmlns="http://www.w3.org/2000/svg" xmlns:xlink="http://www.w3.org/1999/xlink">
    <title>icon_youtube</title>
    <g id="Symbols" stroke="none" stroke-width="1" fill="none" fill-rule="evenodd">
        <g id="footer" transform="translate(-1240.000000, -202.000000)" fill="#BB2026" fill-rule="nonzero">
            <g id="icon_youtube" transform="translate(1240.000000, 202.000000)">
                <path d="M15,0 C23.2842712,0 30,6.71572875 30,15 C30,23.2842712 23.2842712,30 15,30 C6.71572875,30 0,23.2842712 0,15 C0,6.71572875 6.71572875,0 15,0 Z M20.4401926,9.01562385 L10.5230476,9.01562385 C8.57732035,9.01562385 7,10.7197768 7,12.8219602 L7,18.1781193 C7,20.2803028 8.57732035,21.9844557 10.5230476,21.9844557 L20.4401926,21.9844557 C22.3859199,21.9844557 23.9632403,20.2803028 23.9632403,18.1781193 L23.9632403,12.8219602 C23.9632403,10.7197768 22.3859199,9.01562385 20.4401926,9.01562385 Z M13.4230195,12.8599664 L18.0615909,15.399578 C18.1995043,15.4750734 18.1971126,15.6887584 18.0575801,15.7606361 L13.4190087,18.1508471 C13.2954091,18.2145352 13.1526385,18.1171743 13.1526385,17.9692446 L13.1526385,13.039422 C13.1526385,12.8893853 13.2991623,12.7921437 13.4230195,12.8599664 Z" id="Combined-Shape"></path>
            </g>
        </g>
    </g>
</svg>