<?xml version="1.0" encoding="UTF-8"?>
<svg width="30px" height="30px" viewBox="0 0 30 30" version="1.1" xmlns="http://www.w3.org/2000/svg" xmlns:xlink="http://www.w3.org/1999/xlink">
    <title>icon_linkedin</title>
    <g id="Page-1" stroke="none" stroke-width="1" fill="none" fill-rule="evenodd">
        <g id="Pressbooks---Directory---Default" transform="translate(-1233.000000, -6894.000000)" fill="#BB2026">
            <g id="Group-16" transform="translate(0.000000, 6806.000000)">
                <g id="linkedin" transform="translate(1233.000000, 88.000000)">
                    <path d="M14.8932743,0.262894737 C23.1186026,0.262894737 29.7865487,6.87235003 29.7865487,15.0255263 C29.7865487,23.1787026 23.1186026,29.7881579 14.8932743,29.7881579 C6.66794605,29.7881579 -1.77635684e-15,23.1787026 -1.77635684e-15,15.0255263 C-1.77635684e-15,6.87235003 6.66794605,0.262894737 14.8932743,0.262894737 Z M10.9566372,11.6865789 L7.39778761,11.6865789 L7.39778761,22.2997368 L10.9566372,22.2997368 L10.9566372,11.6865789 Z M19.6938053,11.4373684 C17.8022124,11.4373684 16.9584956,12.4689474 16.4853982,13.1905263 L16.4853982,13.1905263 L16.4853982,11.6865789 L12.9249558,11.6865789 C12.9371369,11.9403406 12.9431081,12.7543064 12.9452436,13.8263941 L12.9459656,14.338432 C12.9460434,14.4264597 12.9461007,14.5157397 12.9461385,14.6061346 L12.9461407,15.1607822 C12.946105,15.2550865 12.946052,15.3502307 12.9459829,15.4460772 L12.945382,16.0284848 C12.94201,18.5792406 12.9291404,21.4188958 12.9257685,22.1307904 L12.9250098,22.2885185 L12.9250098,22.2885185 L12.9249558,22.2994737 L16.4851327,22.2994737 L16.4851327,16.3721053 C16.4851327,16.0539474 16.509292,15.7389474 16.6030088,15.5121053 C16.8610619,14.8773684 17.4453982,14.2218421 18.4290265,14.2218421 C19.7179646,14.2218421 20.2319469,15.1955263 20.2319469,16.6213158 L20.2319469,16.6213158 L20.2319469,22.2997368 L23.7918584,22.2997368 L23.7918584,16.2134211 C23.7918584,12.9542105 22.0359292,11.4373684 19.6938053,11.4373684 Z M9.20070796,6.57078947 C7.98292035,6.57078947 7.18619469,7.36315789 7.18619469,8.40421053 C7.18619469,9.42315789 7.95982301,10.2384211 9.1539823,10.2384211 L9.17707965,10.2384211 C10.4187611,10.2384211 11.1907965,9.42315789 11.1907965,8.40421053 C11.1671681,7.36315789 10.4187611,6.57078947 9.20070796,6.57078947 Z" id="Combined-Shape"></path>
                </g>
            </g>
        </g>
    </g>
</svg>