<?xml version="1.0" encoding="UTF-8"?>
<svg width="24px" height="24px" viewBox="0 0 24 24" version="1.1" xmlns="http://www.w3.org/2000/svg" xmlns:xlink="http://www.w3.org/1999/xlink">
    <title>icon-search</title>
    <defs>
        <filter id="filter-1">
            <feColorMatrix in="SourceGraphic" type="matrix" values="0 0 0 0 0.733333 0 0 0 0 0.125490 0 0 0 0 0.149020 0 0 0 1.000000 0"></feColorMatrix>
        </filter>
    </defs>
    <g id="Page-1" stroke="none" stroke-width="1" fill="none" fill-rule="evenodd">
        <g id="Pressbooks---Directory---Default" transform="translate(-353.000000, -403.000000)">
            <g id="icon-search" transform="translate(333.000000, 376.000000)" filter="url(#filter-1)">
                <g transform="translate(20.000000, 27.000000)" id="search" fill="#2C1E8F" fill-rule="nonzero">
                    <path d="M10.1463298,0 C4.55179491,0 0,4.55179491 0,10.1463298 C0,15.7411797 4.55179491,20.2926596 10.1463298,20.2926596 C15.7411797,20.2926596 20.2926596,15.7411797 20.2926596,10.1463298 C20.2926596,4.55179491 15.7411797,0 10.1463298,0 Z M10.1463298,18.4195346 C5.58454489,18.4195346 1.87316996,14.7081597 1.87316996,10.1463748 C1.87316996,5.58458989 5.58454489,1.87316996 10.1463298,1.87316996 C14.7081147,1.87316996 18.4194896,5.58454489 18.4194896,10.1463298 C18.4194896,14.7081147 14.7081147,18.4195346 10.1463298,18.4195346 Z" id="Shape"></path>
                    <path d="M22.7655895,21.4412396 L17.3958297,16.0714797 C17.0299347,15.7055847 16.4373747,15.7055847 16.0714797,16.0714797 C15.7055847,16.4370597 15.7055847,17.0302497 16.0714797,17.3958297 L21.4412396,22.7655895 C21.6241646,22.9485145 21.8636546,23.0399995 22.1034146,23.0399995 C22.3428596,23.0399995 22.5826196,22.9485145 22.7655895,22.7655895 C23.1314845,22.4000096 23.1314845,21.8068196 22.7655895,21.4412396 Z" id="Path"></path>
                </g>
            </g>
        </g>
    </g>
</svg>